<svg width="50" height="50" viewBox="0 0 50 50" fill="none" xmlns="http://www.w3.org/2000/svg">
<path fill-rule="evenodd" clip-rule="evenodd" d="M22.5975 45.6964C12.2232 44.5052 4.16666 35.6935 4.16666 25.0001C4.16666 13.4941 13.4941 4.16675 25 4.16675C36.5059 4.16675 45.8333 13.4941 45.8333 25.0001C45.8333 35.7429 38.9944 34.8594 33.1532 34.1049C29.7842 33.6697 26.7471 33.2773 25.5456 35.1833C24.7238 36.4868 25.6121 38.1122 26.7017 39.2018C28.0631 40.5632 28.0631 42.7704 26.7017 44.1317C25.6121 45.2213 24.1283 45.8722 22.5975 45.6964ZM23.0937 14.5829C23.0937 16.3088 21.6946 17.7079 19.9687 17.7079C18.2429 17.7079 16.8437 16.3088 16.8437 14.5829C16.8437 12.857 18.2429 11.4579 19.9687 11.4579C21.6946 11.4579 23.0937 12.857 23.0937 14.5829ZM13.5417 27.0834C15.2675 27.0834 16.6667 25.6843 16.6667 23.9584C16.6667 22.2325 15.2675 20.8334 13.5417 20.8334C11.8158 20.8334 10.4167 22.2325 10.4167 23.9584C10.4167 25.6843 11.8158 27.0834 13.5417 27.0834ZM36.4583 27.0834C38.1842 27.0834 39.5833 25.6843 39.5833 23.9584C39.5833 22.2325 38.1842 20.8334 36.4583 20.8334C34.7324 20.8334 33.3333 22.2325 33.3333 23.9584C33.3333 25.6843 34.7324 27.0834 36.4583 27.0834ZM30.2083 17.7084C31.9342 17.7084 33.3333 16.3093 33.3333 14.5834C33.3333 12.8575 31.9342 11.4584 30.2083 11.4584C28.4824 11.4584 27.0833 12.8575 27.0833 14.5834C27.0833 16.3093 28.4824 17.7084 30.2083 17.7084Z" fill="white"/>
</svg>
