<svg width="50" height="50" viewBox="0 0 50 50" fill="none" xmlns="http://www.w3.org/2000/svg">
<path fill-rule="evenodd" clip-rule="evenodd" d="M23.9583 4.16675C15.3289 4.16675 8.33333 11.325 8.33333 20.1551C8.33333 24.8892 10.3459 29.1442 13.5387 32.0696C14.6029 33.0447 15.3913 33.7671 15.95 34.2912C16.2294 34.5533 16.443 34.758 16.6006 34.9152C16.6792 34.9935 16.7393 35.0555 16.7841 35.1035C16.8062 35.1273 16.8229 35.1458 16.835 35.1596C16.8468 35.1732 16.8525 35.1802 16.8525 35.1802C17.3452 35.8024 17.4519 35.9629 17.5154 36.1083C17.5789 36.2538 17.6246 36.4421 17.7489 37.2328C17.798 37.545 17.803 38.0796 17.803 39.535L17.803 39.5974C17.803 40.4497 17.803 41.1849 17.8564 41.7882C17.9129 42.4261 18.038 43.0578 18.3739 43.6532C18.748 44.3161 19.2859 44.8665 19.9337 45.2492C20.5155 45.593 21.1329 45.721 21.7563 45.7788C22.3459 45.8335 23.0643 45.8335 23.8973 45.8334H24.0194C24.8523 45.8335 25.5708 45.8335 26.1603 45.7788C26.7838 45.721 27.4011 45.593 27.983 45.2492C28.6308 44.8665 29.1687 44.3161 29.5427 43.6532C29.8786 43.0578 30.0038 42.4261 30.0603 41.7882C30.1137 41.1849 30.1137 40.4497 30.1136 39.5974V39.535C30.1136 38.0796 30.1187 37.545 30.1677 37.2328C30.292 36.4421 30.3378 36.2538 30.4013 36.1083C30.4648 35.9629 30.5714 35.8024 31.0642 35.1802C31.0642 35.1802 31.0693 35.1738 31.0817 35.1596C31.0938 35.1458 31.1104 35.1273 31.1326 35.1035C31.1774 35.0555 31.2375 34.9935 31.316 34.9152C31.4737 34.758 31.6873 34.5533 31.9666 34.2912C32.5254 33.7671 33.3137 33.0447 34.3779 32.0696C37.5708 29.1442 39.5833 24.8892 39.5833 20.1551C39.5833 11.325 32.5878 4.16675 23.9583 4.16675ZM27.2605 40.9885H20.6561C20.6623 41.1904 20.6716 41.3669 20.6857 41.5258C20.7244 41.9621 20.7896 42.1205 20.8342 42.1997C20.9589 42.4207 21.1382 42.6041 21.3542 42.7317C21.4316 42.7774 21.5864 42.8441 22.0128 42.8837C22.4587 42.925 23.0471 42.9264 23.9583 42.9264C24.8695 42.9264 25.4579 42.925 25.9039 42.8837C26.3303 42.8441 26.4851 42.7774 26.5625 42.7317C26.7784 42.6041 26.9577 42.4207 27.0824 42.1997C27.1271 42.1205 27.1923 41.9621 27.2309 41.5258C27.245 41.3669 27.2544 41.1904 27.2605 40.9885ZM26.2718 17.0344C26.9102 17.501 27.058 18.4087 26.602 19.062L24.1479 22.5776H27.0695C27.6016 22.5776 28.0891 22.8819 28.3326 23.366C28.576 23.8501 28.5347 24.4329 28.2254 24.8759L24.167 30.6899C23.711 31.3431 22.8238 31.4944 22.1855 31.0278C21.5471 30.5612 21.3993 29.6534 21.8552 29.0002L24.3093 25.4846H21.3877C20.8556 25.4846 20.3682 25.1803 20.1247 24.6962C19.8812 24.2121 19.9226 23.6293 20.2319 23.1863L24.2903 17.3723C24.7463 16.7191 25.6334 16.5678 26.2718 17.0344Z" fill="white"/>
</svg>
