<svg width="50" height="50" viewBox="0 0 50 50" fill="none" xmlns="http://www.w3.org/2000/svg">
<path d="M38.9109 30.273C39.9382 29.2483 40.5815 28.6459 41.9846 28.6459C43.2223 28.6459 44.3467 29.1405 45.2809 29.7861C43.1184 38.9852 34.8589 45.8334 25 45.8334C15.5576 45.8334 7.58245 39.5517 5.02548 30.9394C6.74465 31.8826 8.96005 32.8126 11.1078 32.8126C12.803 32.8126 14.5136 32.2362 15.9523 31.5672C17.0611 31.0517 18.0828 30.4458 18.9151 29.9004C20.3472 31.6764 22.5409 32.8126 25 32.8126C26.5661 32.8126 28.0246 32.3518 29.2472 31.5583C30.4428 32.2594 31.9248 32.8126 33.6303 32.8126C36.3662 32.8126 37.8096 31.372 38.8669 30.3169L38.9109 30.273Z" fill="white"/>
<path d="M20.3125 25.0001C20.3125 22.4112 22.4111 20.3126 25 20.3126C27.5888 20.3126 29.6875 22.4112 29.6875 25.0001C29.6875 27.5889 27.5888 29.6876 25 29.6876C22.4111 29.6876 20.3125 27.5889 20.3125 25.0001Z" fill="white"/>
<path fill-rule="evenodd" clip-rule="evenodd" d="M25 17.1876C20.6852 17.1876 17.1875 20.6854 17.1875 25.0001C17.1875 25.7296 17.2875 26.4358 17.4745 27.1057C16.6856 27.6374 15.6939 28.2411 14.6348 28.7336C13.3766 29.3186 12.1471 29.6876 11.1078 29.6876C9.52489 29.6876 7.57862 28.8403 5.87301 27.8244C5.24819 27.4522 4.69057 27.0788 4.23984 26.7591C4.19135 26.1792 4.16663 25.5925 4.16663 25.0001C4.16663 18.7461 6.92233 13.1357 11.2857 9.31699C11.3197 9.35883 11.3562 9.39932 11.3951 9.43827L13.4784 11.5216C14.0886 12.1318 15.078 12.1318 15.6881 11.5216C16.2983 10.9114 16.2983 9.92209 15.6881 9.31189L13.804 7.42775C17.0376 5.36323 20.879 4.16675 25 4.16675C31.254 4.16675 36.8643 6.92245 40.6831 11.2858C40.6412 11.3198 40.6007 11.3563 40.5618 11.3952L38.4784 13.4786C37.8682 14.0888 37.8682 15.0781 38.4784 15.6883C39.0886 16.2985 40.078 16.2985 40.6882 15.6883L42.5723 13.8041C44.6368 17.0377 45.8333 20.8792 45.8333 25.0001C45.8333 25.4898 45.8164 25.9756 45.7832 26.4569C44.6933 25.9093 43.4165 25.5209 41.9846 25.5209C39.2486 25.5209 37.8052 26.9615 36.7479 28.0166L36.7039 28.0605C35.6766 29.0852 35.0334 29.6876 33.6303 29.6876C32.9003 29.6876 32.2075 29.5167 31.5642 29.2381C32.354 28.0173 32.8125 26.5623 32.8125 25.0001C32.8125 20.6854 29.3147 17.1876 25 17.1876ZM34.2708 9.16675C34.9612 9.68451 35.1011 10.6639 34.5833 11.3542L31.4583 15.5209C30.9405 16.2113 29.9612 16.3512 29.2708 15.8334C28.5804 15.3156 28.4405 14.3363 28.9583 13.6459L32.0833 9.47925C32.6011 8.78889 33.5804 8.64898 34.2708 9.16675ZM21.8118 7.22856C21.2016 7.83875 21.2016 8.82808 21.8118 9.43827L23.8951 11.5216C24.5053 12.1318 25.4946 12.1318 26.1048 11.5216C26.715 10.9114 26.715 9.92209 26.1048 9.31189L24.0215 7.22856C23.4113 6.61837 22.422 6.61837 21.8118 7.22856ZM17.5198 15.7504C17.7432 16.5839 18.5999 17.0786 19.4335 16.8552L22.2794 16.0927C23.1129 15.8693 23.6076 15.0126 23.3842 14.179C23.1609 13.3455 22.3041 12.8508 21.4706 13.0742L18.6247 13.8367C17.7911 14.0601 17.2965 14.9168 17.5198 15.7504ZM34.8988 23.2049C35.7608 23.1644 36.4268 22.4328 36.3862 21.5708L36.2479 18.6278C36.2074 17.7658 35.4758 17.0998 34.6138 17.1404C33.7518 17.1809 33.0859 17.9125 33.1264 18.7745L33.2647 21.7175C33.3052 22.5795 34.0368 23.2455 34.8988 23.2049ZM39.461 24.0707C40.0313 24.7183 41.0187 24.781 41.6663 24.2106L44.1112 22.1831C44.7588 21.6128 44.8215 20.6255 44.2511 19.9779C43.6808 19.3303 42.6935 19.2676 42.0459 19.838L39.6009 21.8655C38.9533 22.4358 38.8907 23.4231 39.461 24.0707ZM12.2851 14.9452C11.4995 15.3023 11.1521 16.2286 11.5092 17.0142L12.7285 19.6964C13.0856 20.482 14.0119 20.8293 14.7975 20.4722C15.5831 20.1151 15.9304 19.1888 15.5733 18.4032L14.3541 15.721C13.997 14.9354 13.0707 14.5881 12.2851 14.9452ZM14.4647 22.6979C15.1611 23.2075 15.3124 24.1852 14.8028 24.8816L13.0627 27.2591C12.5531 27.9555 11.5754 28.1068 10.879 27.5972C10.1827 27.0875 10.0313 26.1098 10.5409 25.4135L12.281 23.0359C12.7907 22.3396 13.7683 22.1882 14.4647 22.6979ZM7.4215 17.0602C6.55989 17.1082 5.90033 17.8455 5.94833 18.7071L6.11221 21.6489C6.16021 22.5105 6.89759 23.17 7.7592 23.122C8.62081 23.074 9.28037 22.3367 9.23237 21.475L9.06849 18.5333C9.02049 17.6717 8.28311 17.0122 7.4215 17.0602Z" fill="white"/>
</svg>
