<svg width="50" height="50" viewBox="0 0 50 50" fill="none" xmlns="http://www.w3.org/2000/svg">
<path fill-rule="evenodd" clip-rule="evenodd" d="M14.3017 42.8808C11.3517 41.1196 8.79706 38.6028 6.95719 35.4161C5.11876 32.2318 4.21647 28.764 4.16492 25.3312L4.46607 25.3905C10.6099 26.6006 17.5994 24.4129 23.3446 20.8856C24.1001 20.4217 24.841 19.9304 25.5617 19.4155C26.4225 20.4905 27.1934 21.5806 27.8144 22.6563C28.593 24.0048 29.2973 25.609 29.9266 27.3227C28.8489 27.8443 27.7981 28.4188 26.7854 29.0349C20.9691 32.5741 16.007 37.7364 14.3026 42.8781L14.3017 42.8808ZM33.8744 43.8491C28.4475 46.4116 22.378 46.4278 17.1271 44.2892L17.2689 43.8614C18.6513 39.691 22.9344 35.0363 28.4099 31.7046C29.2324 31.204 30.0726 30.739 30.9239 30.3139C31.4493 32.0427 31.9044 33.7964 32.2887 35.4433C32.7872 37.5799 33.1572 39.4949 33.4024 40.8753C33.525 41.565 33.6161 42.1199 33.6764 42.5009C33.7066 42.6914 33.729 42.8383 33.7437 42.9366L33.7601 43.0472L33.764 43.074L33.7651 43.0814L33.8744 43.8491Z" fill="white"/>
<path d="M33.8041 29.0469C37.7365 27.5492 41.7449 26.9736 45.2142 27.7347L45.6407 27.8283C45.387 29.6705 44.8884 31.4731 44.1588 33.1845C42.6497 36.7245 40.1523 39.8742 36.7889 42.1772L36.763 42.0124C36.7 41.6141 36.6056 41.0396 36.4793 40.3287C36.2268 38.9077 35.846 36.9364 35.332 34.7333C34.9174 32.9566 34.41 31.0007 33.8041 29.0469Z" fill="white"/>
<path d="M28.0264 17.4947C31.6277 14.4337 34.4579 10.8052 35.6767 7.18371L35.6985 7.11886C38.6479 8.88004 41.202 11.3965 43.0416 14.5827C44.8807 17.7682 45.783 21.2374 45.8339 24.6714C41.6763 23.7728 37.1125 24.4609 32.8009 26.0861C32.1326 24.2869 31.3741 22.5719 30.5207 21.0938C29.8204 19.8807 28.9659 18.6707 28.0264 17.4947Z" fill="white"/>
<path d="M17.3307 7.19593C16.8056 6.78068 16.378 6.45301 16.0802 6.22801L16.0336 6.19287C19.7054 4.43752 23.6758 3.85193 27.4906 4.31433C29.3392 4.53841 31.1513 5.00859 32.8751 5.71102L32.7149 6.18694C31.7207 9.141 29.2771 12.3341 25.9891 15.1259C24.4675 13.4695 22.8626 11.935 21.4005 10.6236C19.823 9.20871 18.38 8.02578 17.3307 7.19593Z" fill="white"/>
<path d="M21.7095 18.2225C16.3207 21.531 10.1462 23.3242 5.06993 22.3244L4.35619 22.1839C5.12553 16.5727 8.16576 11.328 13.0866 7.90667L13.7698 8.40336L13.774 8.40646L13.7935 8.4207L13.8748 8.48067C13.9474 8.53441 14.056 8.61533 14.1966 8.72156C14.4779 8.93405 14.8871 9.24756 15.3922 9.64707C16.4034 10.4467 17.795 11.5876 19.3139 12.9499C20.6885 14.1828 22.1425 15.5753 23.5055 17.0429C22.9238 17.4509 22.3243 17.845 21.7095 18.2225Z" fill="white"/>
</svg>
